<svg preserveAspectRatio="xMinYMax" viewBox="0 0 120 37" xmlns="http://www.w3.org/2000/svg" xmlns:xlink="http://www.w3.org/1999/xlink"><title>Flatiron</title><defs><path id="a" d="M0 37h119.954V0H0z"></path></defs><g fill="none" fill-rule="evenodd"><path fill="#3887F7" d="M15.659 18.5V37l15.659-9.25V9.25z"></path><path fill="#5051DB" d="M15.659 0L0 9.25v18.5l15.659-9.25z"></path><path d="M103.43 21.488c0-2.368-1.518-3.564-3.163-3.564-1.646 0-3.164 1.196-3.164 3.564 0 2.342 1.518 3.564 3.164 3.564 1.645 0 3.163-1.197 3.163-3.564zm3.367 0c0 3.844-2.81 6.644-6.53 6.644-3.721 0-6.53-2.8-6.53-6.644 0-3.87 2.809-6.645 6.53-6.645 3.72 0 6.53 2.775 6.53 6.645zm-42.429 1.196c0 2.215-1.316 2.902-2.734 2.902-1.088 0-1.62-.712-1.62-1.451 0-.967.684-1.45 1.544-1.578l2.81-.433v.56zm3.29 3.08v-6.16c0-2.52-1.468-4.76-5.416-4.76-3.228 0-5.014 2.018-5.315 3.922l2.988.637c.177-1.007.974-1.836 2.352-1.836 1.417 0 2.1.738 2.1 1.63 0 .432-.227.789-.936.89l-3.062.459c-2.076.305-3.721 1.553-3.721 3.793 0 1.96 1.62 3.767 4.277 3.767 1.848 0 3.038-.865 3.67-1.858 0 .484.051 1.171.127 1.502h3.088a14.101 14.101 0 0 1-.152-1.986z" fill="#231F20"></path><mask id="b" fill="#fff"><use xlink:href="#a"></use></mask><path fill="#231F20" mask="url(#b)" d="M51.343 27.75h3.367V9.25h-3.367zm22.995-12.525h2.505v3.004h-2.505v5.244c0 1.095.506 1.451 1.468 1.451.405 0 .86-.05 1.037-.101v2.8c-.303.127-.937.305-2.095.305-1.98 0-3.751-1.562-3.751-3.87v-5.83h-2.033v-3.003h2.033v-3.742h3.34v3.742zM46.109 27.75h-3.341v-9.514h-2.253v-3.004h2.253v-2.41c0-2.418 1.836-3.869 3.861-3.869 1.477 0 2.366.264 2.777.392v2.8c-.177-.051-.985-.188-1.83-.188-.961 0-1.467.357-1.467 1.451v1.824h3.173v3.004h-3.173v9.514zm32.86 0h3.366V15.225H78.97zm0-14.382h3.366v-3.217H78.97zm13.794 5.217a5.042 5.042 0 0 0-1.013-.101c-1.72 0-3.214.84-3.214 3.538v5.728h-3.367V15.225h3.265v1.794a3.722 3.722 0 0 1 3.255-1.896c.278 0 .82.026 1.074.051v3.411zm19.193 9.165h-3.367V15.225h3.265v1.553c.76-1.298 2.253-1.884 3.595-1.884 3.088 0 4.505 2.215 4.505 4.964v7.892h-3.366v-7.306c0-1.4-.684-2.495-2.304-2.495-1.468 0-2.328 1.146-2.328 2.597v7.204z"></path></g></svg>
